#!OML:ASF H:\GeneralSubjects\Female5\Project 1\Capture day 1\Session 1\Female5.ASF
:FULLY-SPECIFIED
:DEGREES
148
root 16.4218 15.5744 1.15589 -99.0343 -94.7548 117.241
lowerback 16.4427 2.99995 4.64675
upperback -9.32852 5.6312 2.62684
thorax -20.2675 2.01487 -1.32167
lowerneck -20.1287 -1.45305 -3.12117
upperneck 20.9472 1.17005 -10.0565
head 10.1309 -1.04788 -2.90599
rclavicle 3.30976e-014 3.73715e-014
rhumerus -30.939 24.2725 -73.4049
rradius 74.5409
rwrist -10.8732
rhand -26.1647 -14.0629
rfingers 7.12502
rthumb 0.38665 -44.0423
lclavicle 3.30976e-014 3.73715e-014
lhumerus -74.9291 -6.23037 87.1344
lradius 95.9898
lwrist -1.46296
lhand -34.4287 35.3426
lfingers 7.12502
lthumb -7.59332 65.1863
rfemur -11.6918 5.0028 35.7023
rtibia 18.2793
rfoot -22.6723 -1.5012
rtoes -10.3361
lfemur -51.4225 -2.41555 -25.5823
ltibia 74.3261
lfoot -19.9282 -17.3138
ltoes -23.9264
149
root 15.7117 15.6698 1.08621 -107.378 -94.56 125.08
lowerback 15.971 3.50513 3.60868
upperback -9.19123 5.97202 2.21789
thorax -19.794 2.29031 -1.31078
lowerneck -19.9373 -2.12464 -3.1248
upperneck 20.2726 0.0605923 -9.51132
head 9.79653 -1.44549 -2.83781
rclavicle -6.31141e-015 -3.18055e-014
rhumerus -30.0131 21.5355 -72.1727
rradius 78.1509
rwrist -10.9583
rhand -27.0949 -14.9092
rfingers 7.12502
rthumb -0.511793 -44.8883
lclavicle -6.31141e-015 -3.18055e-014
lhumerus -76.3291 -6.66671 85.5928
lradius 96.1487
lwrist 0.586017
lhand -34.9767 36.9159
lfingers 7.12502
lthumb -8.12231 66.7399
rfemur -6.3942 6.70674 35.7402
rtibia 14.5803
rfoot -21.8382 -3.60395
rtoes -13.7931
lfemur -54.5372 -5.00391 -25.4175
ltibia 69.4452
lfoot -21.8079 -18.3848
ltoes -23.8195
150
root 14.9641 15.7767 1.02405 -120.024 -94.6876 137.311
lowerback 15.1047 3.68745 2.69879
upperback -9.0657 5.90397 1.91572
thorax -19.0976 2.38519 -1.07823
lowerneck -19.963 -2.66059 -3.26573
upperneck 19.9069 -0.744463 -9.11263
head 9.63762 -1.75849 -2.77189
rclavicle -1.27222e-014 -1.51076e-014
rhumerus -29.3754 19.974 -71.4389
rradius 81.0307
rwrist -12.7544
rhand -28.42 -15.5978
rfingers 7.12502
rthumb -1.7916 -45.57
lclavicle -1.27222e-014 -1.51076e-014
lhumerus -77.3744 -6.94388 84.0405
lradius 95.8883
lwrist 2.12641
lhand -35.8179 37.9162
lfingers 7.12502
lthumb -8.93408 67.7071
rfemur -0.919229 8.68006 36.2569
rtibia 10.4724
rfoot -20.4166 -6.44944
rtoes -13.7218
lfemur -55.2515 -7.87745 -24.9962
ltibia 61.0904
lfoot -22.6979 -18.2735
ltoes -24.3525
151
root 14.1878 15.8997 0.976204 -133.76 -95.3117 150.665
lowerback 14.184 3.58106 2.12724
upperback -9.03378 5.53254 1.60328
thorax -18.4627 2.29102 -0.948543
lowerneck -20.0011 -3.07342 -3.78349
upperneck 19.8242 -1.32202 -8.35345
head 9.60158 -1.96669 -2.49666
rclavicle -7.05686e-015 7.95139e-015
rhumerus -29.3706 18.8743 -71.0985
rradius 83.7875
rwrist -13.9981
rhand -29.2436 -16.1722
rfingers 7.12502
rthumb -2.587 -46.1362
lclavicle -7.05686e-015 7.95139e-015
lhumerus -78.1867 -7.269 82.6722
lradius 95.6712
lwrist 2.9248
lhand -36.7681 42.6206
lfingers 7.12502
lthumb -9.8509 72.3701
rfemur 4.23888 10.1413 37.1556
rtibia 6.83995
rfoot -18.5598 -9.94333
rtoes -11.6606
lfemur -54.6387 -11.2465 -24.3533
ltibia 51.3324
lfoot -22.0722 -18.1489
ltoes -24.4202
152
root 13.3962 16.0328 0.93806 -143.936 -96.1762 160.616
lowerback 13.0511 3.4397 1.49092
upperback -9.04582 5.11941 1.37671
thorax -17.763 2.18905 -0.663128
lowerneck -20.3534 -3.36374 -4.16486
upperneck 20.2459 -1.64263 -7.93492
head 9.81397 -2.11334 -2.35431
rclavicle -2.03009e-014 -1.11319e-014
rhumerus -30.0007 18.2669 -70.8642
rradius 86.0076
rwrist -14.4083
rhand -30.5501 -15.095
rfingers 7.12502
rthumb -3.84866 -45.04
lclavicle -2.03009e-014 -1.11319e-014
lhumerus -78.4525 -7.53529 81.5847
lradius 95.0038
lwrist 3.10173
lhand -36.1036 41.617
lfingers 7.12502
lthumb -9.20981 71.3959
rfemur 8.50891 10.2976 37.9658
rtibia 4.17581
rfoot -15.3183 -13.7081
rtoes -11.4107
lfemur -53.0502 -14.9466 -23.4015
ltibia 40.5307
lfoot -20.4304 -15.8358
ltoes -23.931
153
root 12.5982 16.1708 0.906003 -148.413 -97.1187 165.055
lowerback 11.8004 3.36049 1.10007
upperback -9.18391 4.86427 1.21546
thorax -17.1303 2.12383 -0.484609
lowerneck -20.5615 -3.6365 -4.34029
upperneck 20.8434 -1.96105 -7.72673
head 10.0621 -2.27261 -2.32253
rclavicle 4.44284e-014 -1.11319e-014
rhumerus -31.24 18.0778 -70.885
rradius 87.419
rwrist -14.0172
rhand -33.6786 -10.4819
rfingers 7.12502
rthumb -6.8693 -40.3504
lclavicle 4.44284e-014 -1.11319e-014
lhumerus -78.3808 -8.04517 80.7953
lradius 94.0881
lwrist 2.98145
lhand -34.9884 40.6561
lfingers 7.12502
lthumb -8.1336 70.4796
rfemur 11.8566 9.96628 38.7225
rtibia 1.73508
rfoot -11.1039 -17.7715
rtoes -6.25357
lfemur -51.3783 -18.5929 -21.8456
ltibia 30.8673
lfoot -20.1558 -16.0501
ltoes -24.2485
